<?xml version="1.0" encoding="UTF-8"?>
<svg id="_레이어_1" data-name="레이어_1" xmlns="http://www.w3.org/2000/svg" version="1.1" viewBox="0 0 160 160">
  <!-- Generator: Adobe Illustrator 30.2.1, SVG Export Plug-In . SVG Version: 2.1.1 Build 1)  -->
  <defs>
    <style>
      .st0 {
        fill: #fff;
      }
    </style>
  </defs>
  <path class="st0" d="M15.83,87.95c0-.17.01-.33.02-.5.01-.24.03-.48.04-.72.02-.24.04-.48.06-.72.02-.24.04-.47.07-.71.02-.23.05-.47.08-.7.03-.23.06-.46.09-.7.03-.23.07-.46.1-.69.04-.23.07-.46.11-.68.04-.23.08-.45.12-.68.04-.22.09-.45.13-.67.05-.22.09-.44.14-.67.05-.22.1-.44.15-.66.05-.22.11-.44.16-.65.06-.22.11-.43.18-.65.06-.21.12-.43.19-.64.06-.21.13-.42.19-.63.07-.21.13-.42.2-.63.07-.21.14-.42.21-.62.07-.21.15-.41.22-.62.08-.2.15-.41.23-.61.08-.2.16-.4.24-.6.08-.2.17-.4.25-.6.08-.2.17-.4.26-.59.09-.2.18-.39.27-.59.09-.19.18-.39.28-.58.09-.19.19-.38.29-.57.1-.19.19-.38.29-.57.1-.19.2-.38.3-.56.1-.19.2-.37.31-.56.1-.18.21-.37.32-.55.11-.18.22-.36.32-.55.11-.18.22-.36.33-.54.11-.18.23-.36.34-.53.11-.18.23-.35.35-.53.12-.17.23-.35.35-.52.12-.17.24-.35.36-.52.12-.17.24-.34.37-.51.12-.17.25-.34.37-.51.13-.17.25-.33.38-.5.13-.17.26-.33.39-.49.13-.16.26-.33.39-.49.13-.16.27-.32.4-.48.13-.16.27-.32.4-.48.14-.16.27-.32.41-.47.14-.16.28-.31.42-.47.14-.15.28-.31.42-.46.14-.15.28-.31.43-.46.14-.15.29-.3.43-.45.14-.15.29-.3.44-.45.15-.15.29-.29.44-.44.15-.15.3-.29.45-.44.15-.14.3-.29.45-.43.15-.14.3-.28.46-.42.15-.14.31-.28.46-.42.15-.14.31-.28.46-.41.16-.14.31-.27.47-.41.16-.14.31-.27.47-.4.16-.13.32-.27.48-.4.16-.13.32-.26.48-.39.16-.13.32-.26.48-.39.16-.13.32-.26.49-.38.16-.13.33-.25.49-.38.16-.13.33-.25.49-.37.16-.12.33-.25.49-.37.17-.12.33-.24.5-.36.17-.12.33-.24.5-.36.17-.12.33-.24.5-.35.17-.12.34-.23.5-.35.17-.12.34-.23.51-.35.17-.11.34-.23.51-.34.17-.11.34-.22.51-.34.17-.11.34-.22.51-.33.17-.11.34-.22.51-.33.17-.11.34-.21.52-.32.17-.11.34-.21.52-.32.17-.1.34-.21.52-.31.17-.1.35-.21.52-.31.17-.1.35-.2.52-.3.17-.1.35-.2.52-.3.17-.1.35-.2.52-.29.17-.1.35-.19.52-.29.17-.1.35-.19.52-.29.17-.09.35-.19.52-.28.17-.09.35-.18.52-.28.17-.09.35-.18.52-.27.17-.09.35-.18.52-.27.17-.09.35-.18.52-.26.17-.09.35-.17.52-.26.17-.09.35-.17.52-.25.17-.08.34-.17.52-.25.17-.08.34-.16.52-.25.17-.08.34-.16.51-.24.17-.08.34-.16.51-.24.17-.08.34-.16.51-.23.17-.08.34-.15.51-.23.17-.08.34-.15.51-.23.17-.07.34-.15.51-.22.17-.07.34-.15.5-.22.17-.07.33-.14.5-.21.17-.07.33-.14.5-.21.17-.07.33-.14.5-.21.16-.07.33-.13.49-.2.16-.07.33-.13.49-.2.16-.06.33-.13.49-.19.16-.06.32-.13.49-.19.16-.06.32-.12.48-.19.16-.06.32-.12.48-.18.16-.06.32-.12.47-.18.16-.06.31-.12.47-.17.16-.06.31-.11.47-.17.15-.06.31-.11.46-.17.15-.05.31-.11.46-.16.15-.05.3-.11.45-.16.15-.05.3-.1.45-.16.15-.05.3-.1.45-.15.15-.05.29-.1.44-.15.15-.05.29-.1.44-.15.14-.05.29-.1.43-.14.14-.05.28-.09.43-.14.14-.05.28-.09.42-.14.14-.04.28-.09.42-.13.14-.04.27-.09.41-.13.13-.04.27-.08.4-.12.13-.04.27-.08.4-.12.13-.04.26-.08.39-.12.13-.04.26-.08.39-.11.13-.04.25-.07.38-.11.12-.04.25-.07.37-.11.12-.04.24-.07.37-.11.12-.03.24-.07.36-.1.12-.03.23-.07.35-.1.11-.03.23-.06.35-.1.11-.03.23-.06.34-.09.11-.03.22-.06.33-.09.11-.03.22-.06.32-.09.11-.03.21-.06.32-.08.1-.03.2-.05.31-.08.1-.03.2-.05.3-.08.1-.02.19-.05.29-.07.09-.02.19-.05.28-.07.09-.02.18-.05.27-.07.09-.02.18-.04.27-.07,4.37-1.07,8.94-1.57,13.4-1.9.34-.02.67-.05,1.01-.07.33-.02.67-.04,1-.06.33-.02.66-.04.99-.05.33-.02.66-.03.98-.04.32-.01.65-.02.97-.03.32,0,.64-.02.97-.02.32,0,.64-.01.96-.02.32,0,.63,0,.95,0,.31,0,.63,0,.94,0,.31,0,.62,0,.93,0,.31,0,.61.01.92.02.3,0,.61.02.91.02.3,0,.6.02.9.03.3.01.6.03.9.04.3.01.59.03.89.05.29.02.59.04.88.06.29.02.58.04.87.06.29.02.57.05.86.07.28.02.57.05.85.08.28.03.56.05.84.08.28.03.56.06.84.09.28.03.55.06.83.1.27.03.55.07.82.1.27.04.54.07.81.11.27.04.53.08.8.12.26.04.53.08.79.12.26.04.52.08.78.13.26.04.52.09.78.13.26.04.51.09.77.14.25.05.51.09.76.14.25.05.5.1.75.15.25.05.49.1.74.15.24.05.49.1.73.16.24.05.48.11.73.16.24.06.48.11.72.17.24.06.47.11.71.17.23.06.47.12.7.18.23.06.46.12.69.18.23.06.46.12.68.19.23.06.45.13.68.19.22.06.44.13.67.19.22.06.44.13.66.2.22.07.43.13.65.2.21.07.43.14.64.2.21.07.42.14.63.21.21.07.42.14.63.21.21.07.41.14.62.21.2.07.41.14.61.22.2.07.4.15.6.22.2.07.4.15.59.22.2.07.39.15.59.23.19.08.38.15.58.23.19.08.38.15.57.23.19.08.37.15.56.23.18.08.37.16.55.23.18.08.36.16.54.24.18.08.36.16.54.24.18.08.35.16.53.24.17.08.35.16.52.24.17.08.34.16.51.24.17.08.34.16.5.24.17.08.33.16.5.24.16.08.33.16.49.24.16.08.32.16.48.25.16.08.32.16.47.25.16.08.31.16.46.25.15.08.3.16.46.25.15.08.3.16.45.25.15.08.29.16.44.25.14.08.29.16.43.25.14.08.28.16.43.25.14.08.28.16.42.25.14.08.27.16.41.25.13.08.27.16.4.24.13.08.26.16.39.24.13.08.26.16.39.24.13.08.25.16.38.24.12.08.25.16.37.24.12.08.24.16.36.24.12.08.24.16.36.24.12.08.23.16.35.24.11.08.23.16.34.23.11.08.22.15.33.23.11.08.22.15.33.23.11.08.21.15.32.23.07.05.14.1.21.15-.02-.02-.04-.04-.06-.06-.03-.03-.05-.06-.08-.09-.03-.03-.06-.06-.09-.09-.03-.03-.06-.07-.1-.1-.03-.03-.07-.07-.1-.1-.04-.04-.07-.07-.11-.11-.04-.04-.08-.08-.12-.12-.04-.04-.08-.08-.12-.12-.04-.04-.09-.09-.13-.13-.05-.04-.09-.09-.14-.13-.05-.05-.1-.09-.15-.14-.05-.05-.1-.1-.15-.14-.05-.05-.11-.1-.16-.15-.06-.05-.11-.1-.17-.15-.06-.05-.12-.11-.17-.16-.06-.06-.12-.11-.18-.16-.06-.06-.13-.11-.19-.17-.07-.06-.13-.12-.2-.17-.07-.06-.14-.12-.2-.18-.07-.06-.14-.12-.21-.18-.07-.06-.15-.12-.22-.19-.08-.06-.15-.13-.23-.19-.08-.06-.16-.13-.23-.19-.08-.07-.16-.13-.24-.2-.08-.07-.17-.13-.25-.2-.09-.07-.17-.14-.26-.2-.09-.07-.18-.14-.26-.21-.09-.07-.18-.14-.27-.21-.09-.07-.19-.14-.28-.21-.1-.07-.19-.14-.29-.22-.1-.07-.2-.15-.29-.22-.1-.07-.2-.15-.3-.22-.1-.08-.21-.15-.31-.22-.11-.08-.21-.15-.32-.23-.11-.08-.22-.15-.32-.23-.11-.08-.22-.15-.33-.23-.11-.08-.23-.16-.34-.23-.12-.08-.23-.16-.35-.23-.12-.08-.24-.16-.35-.24-.12-.08-.24-.16-.36-.24-.12-.08-.25-.16-.37-.24-.13-.08-.25-.16-.38-.24-.13-.08-.26-.16-.38-.24-.13-.08-.26-.16-.39-.24-.13-.08-.27-.16-.4-.24-.14-.08-.27-.16-.41-.24-.14-.08-.28-.16-.42-.24-.14-.08-.28-.16-.42-.24-.14-.08-.29-.16-.43-.25-.15-.08-.29-.16-.44-.25-.15-.08-.3-.16-.45-.25-.15-.08-.3-.16-.45-.25-.15-.08-.31-.16-.46-.24-.16-.08-.31-.16-.47-.24-.16-.08-.32-.16-.48-.24-.16-.08-.32-.16-.49-.24-.16-.08-.33-.16-.49-.24-.17-.08-.33-.16-.5-.24-.17-.08-.34-.16-.51-.24-.17-.08-.35-.16-.52-.24-.18-.08-.35-.16-.53-.24-.18-.08-.36-.16-.53-.24-.18-.08-.36-.16-.54-.23-.18-.08-.37-.16-.55-.23-.19-.08-.37-.15-.56-.23-.19-.08-.38-.15-.57-.23-.19-.08-.38-.15-.57-.23-.19-.08-.39-.15-.58-.22-.2-.07-.39-.15-.59-.22-.2-.07-.4-.15-.6-.22-.2-.07-.4-.14-.61-.22-.2-.07-.41-.14-.61-.21-.21-.07-.42-.14-.62-.21-.21-.07-.42-.14-.63-.21-.21-.07-.43-.14-.64-.2-.22-.07-.43-.13-.65-.2-.22-.07-.44-.13-.66-.2-.22-.07-.44-.13-.66-.19-.22-.06-.45-.13-.67-.19-.23-.06-.45-.12-.68-.18-.23-.06-.46-.12-.69-.18-.23-.06-.46-.12-.7-.18-.23-.06-.47-.12-.71-.17-.24-.06-.48-.11-.71-.17-.24-.06-.48-.11-.72-.16-.24-.05-.49-.11-.73-.16-.25-.05-.49-.1-.74-.15-.25-.05-.5-.1-.75-.15-.25-.05-.5-.1-.76-.14-.25-.05-.51-.09-.76-.14-.26-.05-.51-.09-.77-.13-.26-.04-.52-.09-.78-.13-.26-.04-.53-.08-.79-.12-.27-.04-.53-.08-.8-.11-.27-.04-.54-.07-.81-.11-.27-.04-.54-.07-.81-.1-.27-.03-.55-.07-.82-.1-.28-.03-.55-.06-.83-.09-.28-.03-.56-.06-.84-.08-.28-.03-.57-.05-.85-.08-.29-.02-.57-.05-.86-.07-.29-.02-.58-.04-.87-.06-.29-.02-.58-.04-.87-.05-.29-.02-.59-.03-.88-.05-.3-.01-.59-.03-.89-.04-.3-.01-.6-.02-.9-.03-.3,0-.61-.02-.91-.02-.31,0-.61-.01-.92-.02-.31,0-.62,0-.93,0-.31,0-.62,0-.93,0-.31,0-.63,0-.94,0-.32,0-.63,0-.95.02-.32,0-.64.01-.96.02-.32,0-.65.02-.97.03-.33.01-.65.03-.98.04-.33.02-.66.03-.99.05-.33.02-.66.04-1,.06-.34.02-.67.04-1,.07-4.43.32-8.98.83-13.34,1.88-.09.02-.18.04-.27.06-.09.02-.18.05-.27.07-.09.02-.19.05-.28.07-.1.02-.19.05-.29.07-.1.03-.2.05-.3.08-.1.03-.2.05-.31.08-.1.03-.21.05-.31.08-.11.03-.21.06-.32.09-.11.03-.22.06-.33.09-.11.03-.22.06-.34.09-.11.03-.23.06-.34.09-.12.03-.23.07-.35.1-.12.03-.24.07-.36.1-.12.03-.24.07-.36.1-.12.04-.25.07-.37.11-.13.04-.25.07-.38.11-.13.04-.26.08-.38.11-.13.04-.26.08-.39.12-.13.04-.26.08-.4.12-.13.04-.27.08-.4.12-.14.04-.27.08-.41.13-.14.04-.28.09-.41.13-.14.04-.28.09-.42.13-.14.05-.28.09-.42.14-.14.05-.29.09-.43.14-.14.05-.29.1-.43.14-.15.05-.29.1-.44.15-.15.05-.3.1-.44.15-.15.05-.3.1-.45.16-.15.05-.3.11-.45.16-.15.05-.3.11-.46.16-.15.06-.31.11-.46.17-.16.06-.31.11-.47.17-.16.06-.31.12-.47.17-.16.06-.32.12-.47.18-.16.06-.32.12-.48.18-.16.06-.32.12-.48.18-.16.06-.32.13-.48.19-.16.06-.32.13-.49.19-.16.07-.33.13-.49.2-.16.07-.33.13-.49.2-.17.07-.33.14-.49.2-.17.07-.33.14-.5.21-.17.07-.33.14-.5.21-.17.07-.33.14-.5.22-.17.07-.34.15-.5.22-.17.07-.34.15-.51.22-.17.08-.34.15-.51.23-.17.08-.34.15-.51.23-.17.08-.34.16-.51.24-.17.08-.34.16-.51.24-.17.08-.34.16-.51.24-.17.08-.34.17-.51.25-.17.08-.34.17-.52.25-.17.09-.34.17-.52.26-.17.09-.35.17-.52.26-.17.09-.35.18-.52.27-.17.09-.35.18-.52.27-.17.09-.35.18-.52.27-.17.09-.35.19-.52.28-.17.09-.35.19-.52.28-.17.1-.35.19-.52.29-.17.1-.35.19-.52.29-.17.1-.35.2-.52.3-.17.1-.34.2-.52.3-.17.1-.34.2-.52.31-.17.1-.34.21-.52.31-.17.1-.34.21-.51.31-.17.11-.34.21-.51.32-.17.11-.34.22-.51.32-.17.11-.34.22-.51.33-.17.11-.34.22-.51.33-.17.11-.34.22-.51.34-.17.11-.34.23-.5.34-.17.12-.34.23-.5.35-.17.12-.33.23-.5.35-.17.12-.33.24-.5.36-.17.12-.33.24-.5.36-.16.12-.33.24-.49.37-.16.12-.33.25-.49.37-.16.12-.33.25-.49.38-.16.13-.32.25-.48.38-.16.13-.32.26-.48.39-.16.13-.32.26-.48.39-.16.13-.32.26-.47.4-.16.13-.31.27-.47.4-.16.13-.31.27-.47.41-.15.14-.31.27-.46.41-.15.14-.31.28-.46.42-.15.14-.3.28-.45.42-.15.14-.3.28-.45.43-.15.14-.3.29-.44.43-.15.14-.29.29-.44.44-.15.15-.29.29-.44.44-.14.15-.29.3-.43.45-.14.15-.28.3-.43.45-.14.15-.28.3-.42.46-.14.15-.28.31-.41.46-.14.16-.27.31-.41.47-.14.16-.27.32-.4.47-.13.16-.27.32-.4.48-.13.16-.26.32-.39.49-.13.16-.26.33-.39.49-.13.16-.25.33-.38.5-.13.17-.25.33-.37.5-.12.17-.25.34-.37.51-.12.17-.24.34-.36.51-.12.17-.24.35-.35.52-.12.17-.23.35-.35.52-.11.18-.23.35-.34.53-.11.18-.22.36-.33.54-.11.18-.22.36-.32.54-.11.18-.21.36-.32.55-.1.18-.21.37-.31.55-.1.19-.2.37-.3.56-.1.19-.2.38-.29.56-.1.19-.19.38-.28.57-.09.19-.19.38-.28.58-.09.19-.18.39-.27.58-.09.2-.17.39-.26.59-.08.2-.17.4-.25.59-.08.2-.16.4-.24.6-.08.2-.16.4-.23.61-.08.2-.15.41-.22.61-.07.21-.14.41-.21.62-.07.21-.14.42-.2.62-.07.21-.13.42-.19.63-.06.21-.12.42-.18.64-.06.21-.12.43-.17.64-.06.22-.11.43-.16.65-.05.22-.1.44-.15.65-.05.22-.1.44-.14.66-.05.22-.09.44-.13.67-.04.22-.08.45-.12.67-.04.23-.08.45-.11.68-.04.23-.07.46-.1.69-.03.23-.06.46-.09.69-.03.23-.05.47-.08.7-.02.23-.05.47-.07.71-.02.24-.04.47-.06.71-.02.24-.03.48-.04.72,0,.16-.02.33-.02.5-.54,13,6.91,17.67,8.36,18.45-1.73-2.9-3.12-7.09-2.87-12.99Z"/>
  <path class="st0" d="M17.89,91.02c1-8.33,6.21-15.78,12-21.69,7.64-7.81,17.25-13.38,27.23-17.66,21.1-9.04,44.99-13.16,68.39-7.88,3.83.86,7.48,2.41,11.03,4.07,1.11.52,3.33,1.18,4.15,2.17,0,0,0,0-.01-.01,0,0-.01-.01-.02-.02,0,0-.02-.02-.02-.03-.01-.01-.02-.02-.03-.04-.01-.01-.03-.03-.04-.04-.02-.02-.03-.03-.05-.05-.02-.02-.03-.04-.05-.06-.02-.02-.04-.04-.06-.06-.02-.02-.04-.05-.07-.07,0,0-.01-.01-.02-.02-.07-.05-.14-.1-.21-.15-.11-.08-.21-.15-.32-.23-.11-.08-.22-.15-.33-.23-.11-.08-.22-.16-.33-.23-.11-.08-.23-.16-.34-.23-.12-.08-.23-.16-.35-.24-.12-.08-.24-.16-.36-.24-.12-.08-.24-.16-.36-.24-.12-.08-.25-.16-.37-.24-.13-.08-.25-.16-.38-.24-.13-.08-.26-.16-.39-.24-.13-.08-.26-.16-.39-.24-.13-.08-.27-.16-.4-.24-.14-.08-.27-.16-.41-.25-.14-.08-.28-.16-.42-.25-.14-.08-.28-.16-.43-.25-.14-.08-.29-.17-.43-.25-.15-.08-.29-.17-.44-.25-.15-.08-.3-.17-.45-.25-.15-.08-.3-.17-.46-.25-.15-.08-.31-.16-.46-.25-.16-.08-.31-.16-.47-.25-.16-.08-.32-.16-.48-.25-.16-.08-.33-.16-.49-.24-.17-.08-.33-.16-.5-.24-.17-.08-.34-.16-.5-.24-.17-.08-.34-.16-.51-.24-.17-.08-.35-.16-.52-.24-.18-.08-.35-.16-.53-.24-.18-.08-.36-.16-.54-.24-.18-.08-.36-.16-.54-.24-.18-.08-.37-.16-.55-.23-.19-.08-.37-.16-.56-.23-.19-.08-.38-.15-.57-.23-.19-.08-.38-.15-.58-.23-.19-.08-.39-.15-.59-.23-.2-.08-.4-.15-.59-.22-.2-.07-.4-.15-.6-.22-.2-.07-.41-.15-.61-.22-.21-.07-.41-.14-.62-.21-.21-.07-.42-.14-.63-.21-.21-.07-.42-.14-.63-.21-.21-.07-.43-.14-.64-.2-.22-.07-.43-.14-.65-.2-.22-.07-.44-.13-.66-.2-.22-.07-.44-.13-.67-.19-.22-.06-.45-.13-.68-.19-.23-.06-.46-.12-.68-.19-.23-.06-.46-.12-.69-.18-.23-.06-.47-.12-.7-.18-.24-.06-.47-.12-.71-.17-.24-.06-.48-.11-.72-.17-.24-.06-.48-.11-.73-.16-.24-.05-.49-.11-.73-.16-.25-.05-.49-.1-.74-.15-.25-.05-.5-.1-.75-.15-.25-.05-.51-.1-.76-.14-.26-.05-.51-.09-.77-.14-.26-.05-.52-.09-.78-.13-.26-.04-.52-.09-.78-.13-.26-.04-.53-.08-.79-.12-.27-.04-.53-.08-.8-.12-.27-.04-.54-.07-.81-.11-.27-.04-.55-.07-.82-.1-.28-.03-.55-.07-.83-.1-.28-.03-.56-.06-.84-.09-.28-.03-.56-.06-.84-.08-.28-.03-.57-.05-.85-.08-.29-.02-.57-.05-.86-.07-.29-.02-.58-.04-.87-.06-.29-.02-.59-.04-.88-.06-.3-.02-.59-.03-.89-.05-.3-.01-.6-.03-.9-.04-.3-.01-.6-.02-.9-.03-.3,0-.61-.02-.91-.02-.31,0-.61-.01-.92-.02-.31,0-.62,0-.93,0-.31,0-.63,0-.94,0-.32,0-.63,0-.95,0-.32,0-.64,0-.96.02-.32,0-.64.01-.97.02-.32,0-.65.02-.97.03-.33.01-.66.03-.98.04-.33.02-.66.03-.99.05-.33.02-.67.04-1,.06-.34.02-.67.04-1.01.07-4.45.33-9.02.83-13.4,1.9-.09.02-.18.04-.27.07-.09.02-.18.05-.27.07-.09.02-.19.05-.28.07-.1.02-.19.05-.29.07-.1.03-.2.05-.3.08-.1.03-.21.05-.31.08-.11.03-.21.06-.32.08-.11.03-.22.06-.32.09-.11.03-.22.06-.33.09-.11.03-.23.06-.34.09-.12.03-.23.06-.35.1-.12.03-.23.07-.35.1-.12.03-.24.07-.36.1-.12.03-.24.07-.37.11-.12.04-.25.07-.37.11-.13.04-.25.07-.38.11-.13.04-.26.08-.39.11-.13.04-.26.08-.39.12-.13.04-.27.08-.4.12-.13.04-.27.08-.4.12-.14.04-.27.09-.41.13-.14.04-.28.09-.42.13-.14.04-.28.09-.42.14-.14.05-.28.09-.43.14-.14.05-.29.09-.43.14-.15.05-.29.1-.44.15-.15.05-.29.1-.44.15-.15.05-.3.1-.45.15-.15.05-.3.1-.45.16-.15.05-.3.11-.45.16-.15.05-.31.11-.46.16-.15.06-.31.11-.46.17-.16.06-.31.11-.47.17-.16.06-.31.12-.47.17-.16.06-.32.12-.47.18-.16.06-.32.12-.48.18-.16.06-.32.12-.48.19-.16.06-.32.13-.49.19-.16.06-.33.13-.49.19-.16.07-.33.13-.49.2-.16.07-.33.13-.49.2-.17.07-.33.14-.5.21-.17.07-.33.14-.5.21-.17.07-.33.14-.5.21-.17.07-.34.14-.5.22-.17.07-.34.15-.51.22-.17.07-.34.15-.51.23-.17.08-.34.15-.51.23-.17.08-.34.16-.51.23-.17.08-.34.16-.51.24-.17.08-.34.16-.51.24-.17.08-.34.16-.52.25-.17.08-.35.17-.52.25-.17.08-.35.17-.52.25-.17.09-.35.17-.52.26-.17.09-.35.17-.52.26-.17.09-.35.18-.52.27-.17.09-.35.18-.52.27-.17.09-.35.18-.52.28-.17.09-.35.19-.52.28-.17.09-.35.19-.52.29-.17.1-.35.19-.52.29-.17.1-.35.2-.52.29-.17.1-.35.2-.52.3-.17.1-.35.2-.52.3-.17.1-.35.2-.52.31-.17.1-.35.21-.52.31-.17.1-.34.21-.52.32-.17.11-.34.21-.52.32-.17.11-.34.22-.51.33-.17.11-.34.22-.51.33-.17.11-.34.22-.51.34-.17.11-.34.23-.51.34-.17.11-.34.23-.51.35-.17.12-.34.23-.5.35-.17.12-.34.24-.5.35-.17.12-.33.24-.5.36-.17.12-.33.24-.5.36-.17.12-.33.25-.49.37-.16.12-.33.25-.49.37-.16.13-.33.25-.49.38-.16.13-.32.26-.49.38-.16.13-.32.26-.48.39-.16.13-.32.26-.48.39-.16.13-.32.27-.48.4-.16.13-.32.27-.47.4-.16.14-.31.27-.47.41-.16.14-.31.28-.46.41-.15.14-.31.28-.46.42-.15.14-.3.28-.46.42-.15.14-.3.29-.45.43-.15.14-.3.29-.45.44-.15.15-.3.29-.44.44-.15.15-.29.3-.44.45-.14.15-.29.3-.43.45-.14.15-.29.3-.43.46-.14.15-.28.31-.42.46-.14.15-.28.31-.42.47-.14.16-.27.31-.41.47-.14.16-.27.32-.4.48-.13.16-.27.32-.4.48-.13.16-.26.33-.39.49-.13.16-.26.33-.39.49-.13.17-.25.33-.38.5-.13.17-.25.34-.37.51-.12.17-.25.34-.37.51-.12.17-.24.34-.36.52-.12.17-.24.35-.35.52-.12.18-.23.35-.35.53-.11.18-.23.35-.34.53-.11.18-.22.36-.33.54-.11.18-.22.36-.32.55-.11.18-.21.37-.32.55-.1.18-.21.37-.31.56-.1.19-.2.37-.3.56-.1.19-.2.38-.29.57-.1.19-.19.38-.29.57-.09.19-.19.39-.28.58-.09.19-.18.39-.27.59-.09.2-.17.39-.26.59-.09.2-.17.4-.25.6-.08.2-.16.4-.24.6-.08.2-.16.41-.23.61-.08.2-.15.41-.22.62-.07.21-.14.41-.21.62-.07.21-.14.42-.2.63-.07.21-.13.42-.19.63-.06.21-.13.43-.19.64-.06.22-.12.43-.18.65-.06.22-.11.43-.16.65-.05.22-.11.44-.15.66-.05.22-.1.44-.14.67-.05.22-.09.45-.13.67-.04.23-.08.45-.12.68-.04.23-.08.46-.11.68-.04.23-.07.46-.1.69-.03.23-.06.46-.09.7-.03.23-.05.47-.08.7-.02.24-.05.47-.07.71-.02.24-.04.48-.06.72-.02.24-.03.48-.04.72,0,.17-.02.33-.02.5-.24,5.9,1.14,10.09,2.87,12.99.16.08.24.12.24.12-1.47-.56-1.17-9.03-1.05-10.05Z"/>
  <g>
    <path class="st0" d="M87.12,60.64c1.17,0,2.17.42,3,1.25.83.83,1.25,1.83,1.25,3.01s-.42,2.21-1.25,3.05c-.83.83-1.83,1.25-3,1.25s-2.22-.42-3.07-1.25c-.84-.83-1.27-1.85-1.27-3.05s.42-2.17,1.27-3.01c.84-.83,1.87-1.25,3.07-1.25ZM83.04,71.07h8.22v24.98h-8.22v-24.98Z"/>
    <path class="st0" d="M106.75,63.51v8.3h5.89v6.21h-5.89v10.14c0,.55.08.98.25,1.29.16.31.37.55.61.72.19.16.4.27.63.31s.43.06.59.06h3.03v5.64h-5.56c-1.91,0-3.54-.43-4.89-1.29-1.35-.86-2.26-2-2.72-3.41-.11-.44-.18-.85-.23-1.25-.04-.39-.06-.86-.06-1.41v-10.79h-4.09v-6.21h4.09"/>
    <path class="st0" d="M131.24,70.95c1.5,0,2.88.25,4.15.76,1.27.5,2.38,1.21,3.33,2.11.9.9,1.61,2,2.15,3.29.53,1.3.8,2.73.8,4.31v14.76h-8.3v-13.16c0-1.8-.38-3.09-1.12-3.88-.75-.79-1.75-1.2-3.01-1.23-.79,0-1.48.11-2.06.33-.59.22-1.07.46-1.45.74-.44.33-.82.68-1.14,1.06v16.15h-8.3v-32.67h8.3v8.83c.52-.33,1.15-.59,1.9-.78.75-.19,1.48-.33,2.19-.41.84-.14,1.7-.2,2.58-.2Z"/>
  </g>
  <path class="st0" d="M71.97,70.72h7.4l-6.16,25.45h-8.17l-3.72-15.38-3.72,15.38h-8.17l-6.16-25.45h7.4l3.29,17.01,4.03-17.01h6.66l4.03,17.01,3.29-17.01Z"/>
  <circle class="st0" cx="137.34" cy="32.35" r="6.86"/>
  <g>
    <path class="st0" d="M19.13,109.82h1.19l2.85,9.2-.7-1.27h.7v1.27h-1.09l-2.95-9.2ZM24.96,109.82h.9l.15.57v1.69h-.91l.91-1.69-2.46,8.63h-1.08l2.49-9.2ZM25.1,110.39l.15-.57h.9l2.49,9.2-.7-1.27h.7v1.27h-1.08l-2.46-8.63ZM30.79,109.82h1.19l-2.95,9.2h-1.09l2.85-9.2Z"/>
    <path class="st0" d="M33.3,111c-.11-.06-.19-.15-.25-.25-.06-.11-.1-.23-.1-.36s.03-.26.1-.37c.06-.11.15-.19.25-.25s.23-.09.36-.09.26.03.37.09c.11.06.19.14.25.25.06.11.09.23.09.37s-.03.26-.09.36c-.06.11-.14.19-.25.25-.11.06-.23.1-.37.1s-.26-.03-.36-.1ZM33.13,112.46h1.07v6.55h-1.07v-6.55Z"/>
    <path class="st0" d="M35.49,112.46h3.81v.89h-3.81v-.89ZM37.49,118.95c-.28-.17-.5-.4-.65-.71s-.23-.67-.23-1.09v-6.31h1.07v6.28c0,.36.08.62.23.79s.4.25.73.25c.22,0,.44-.03.67-.1v1c-.3.09-.57.14-.83.14-.38,0-.71-.08-1-.25Z"/>
    <path class="st0" d="M40.7,109.82h1.07v9.2h-1.07v-9.2ZM44.6,113.78c-.25-.32-.6-.48-1.05-.48-.31,0-.61.08-.88.23-.27.15-.49.38-.65.69-.17.31-.25.69-.25,1.14l-.15-1.02v-.93h.36l-.36.93c0-.41.09-.76.27-1.07.18-.31.44-.55.76-.72s.7-.26,1.12-.26c.48,0,.89.11,1.23.32.34.22.59.53.77.93.17.41.26.89.26,1.46v4.01h-1.07v-3.86c0-.6-.12-1.06-.37-1.38Z"/>
    <path class="st0" d="M50.43,109.82h1.26l2.65,4.32-.1-.05h.2l-.1.05,2.65-4.32h1.26l-3.91,6.22-3.91-6.22ZM53.79,114.42h1.12v4.6h-1.12v-4.6Z"/>
    <path class="st0" d="M59.38,118.74c-.51-.3-.92-.72-1.21-1.24s-.44-1.12-.44-1.76.15-1.24.44-1.77.7-.94,1.21-1.24c.51-.3,1.08-.45,1.71-.45s1.21.15,1.72.45c.51.3.91.71,1.21,1.24.29.52.44,1.11.44,1.77s-.15,1.23-.44,1.76c-.29.53-.69.94-1.21,1.24-.51.3-1.09.45-1.72.45s-1.2-.15-1.71-.45ZM62.27,117.87c.35-.21.62-.5.81-.86.19-.37.29-.79.29-1.26s-.1-.9-.29-1.26c-.19-.37-.46-.66-.81-.86-.35-.21-.74-.31-1.18-.31s-.83.1-1.18.31c-.34.21-.61.5-.81.86-.19.37-.29.79-.29,1.26s.1.9.29,1.26c.19.37.46.66.81.86.34.21.73.31,1.18.31s.83-.1,1.18-.31Z"/>
    <path class="st0" d="M67.29,117.7c.25.32.6.48,1.05.48.31,0,.61-.08.88-.23.27-.15.49-.38.65-.69.17-.31.25-.69.25-1.14l.15,1.02v.93h-.36l.36-.93c0,.41-.09.76-.27,1.07-.18.31-.44.55-.76.72-.33.17-.7.26-1.12.26-.48,0-.89-.11-1.23-.32-.34-.22-.59-.53-.77-.93s-.26-.89-.26-1.46v-4.01h1.07v3.86c0,.6.12,1.06.37,1.38ZM71.19,119.02h-1.07v-6.55h1.07v6.55Z"/>
    <path class="st0" d="M75.79,112.46h3.96v.89h-3.96v-.89ZM79.75,109.81v1c-.26-.08-.52-.13-.76-.13-.34,0-.59.08-.76.25-.17.17-.25.43-.25.79v7.29h-1.07v-7.33c0-.41.08-.78.23-1.09.16-.31.38-.55.67-.71.29-.16.63-.25,1.02-.25.31,0,.62.06.91.17Z"/>
    <path class="st0" d="M82.09,118.74c-.51-.3-.92-.72-1.21-1.24s-.44-1.12-.44-1.76.15-1.24.44-1.77.7-.94,1.21-1.24c.51-.3,1.08-.45,1.71-.45s1.21.15,1.72.45c.51.3.91.71,1.21,1.24s.44,1.11.44,1.77-.15,1.23-.44,1.76-.69.94-1.21,1.24c-.51.3-1.09.45-1.72.45s-1.2-.15-1.71-.45ZM84.98,117.87c.35-.21.62-.5.81-.86.19-.37.29-.79.29-1.26s-.1-.9-.29-1.26c-.19-.37-.46-.66-.81-.86-.35-.21-.74-.31-1.18-.31s-.83.1-1.18.31c-.34.21-.61.5-.81.86-.19.37-.29.79-.29,1.26s.1.9.29,1.26c.19.37.46.66.81.86.34.21.73.31,1.18.31s.83-.1,1.18-.31Z"/>
    <path class="st0" d="M88.57,112.46h1.07v6.55h-1.07v-6.55ZM89.44,114.57v-1.09h.39l-.39,1.09c0-.41.09-.8.27-1.15.18-.35.41-.63.71-.83s.62-.3.98-.3c.24,0,.47.05.69.14v1.05c-.24-.08-.47-.11-.71-.11-.36,0-.68.09-.93.28-.26.19-.46.46-.6.81-.14.36-.21.78-.21,1.28l-.19-1.17Z"/>
    <path class="st0" d="M97.83,118.77c-.51-.28-.97-.72-1.38-1.31l.94-.6c.32.45.66.77,1,.97.35.2.76.3,1.23.3.41,0,.78-.07,1.09-.2.31-.14.54-.33.71-.58.16-.25.24-.55.24-.89,0-.29-.06-.53-.18-.73-.12-.2-.33-.37-.61-.53-.28-.15-.67-.3-1.16-.43l-.46-.13c-.85-.24-1.47-.55-1.87-.94-.4-.39-.6-.88-.6-1.47,0-.49.12-.93.37-1.33.25-.39.58-.7,1.02-.92.43-.22.92-.33,1.46-.33.63,0,1.2.15,1.73.45.53.3.96.72,1.3,1.26l-.97.56c-.25-.4-.56-.7-.91-.9s-.74-.3-1.16-.3c-.33,0-.62.06-.88.19-.26.13-.46.3-.6.53-.14.23-.22.49-.22.79,0,.24.05.44.16.6s.28.3.51.43c.23.13.55.25.96.36l.46.13c.66.18,1.19.39,1.6.64.41.25.71.54.9.88.19.34.29.74.29,1.19,0,.54-.13,1.02-.39,1.44-.26.42-.63.74-1.11.97-.48.23-1.04.34-1.67.34-.69,0-1.29-.14-1.8-.43Z"/>
    <path class="st0" d="M105.69,117.7c.25.32.6.48,1.05.48.31,0,.61-.08.88-.23.27-.15.49-.38.65-.69.17-.31.25-.69.25-1.14l.15,1.02v.93h-.36l.36-.93c0,.41-.09.76-.27,1.07-.18.31-.44.55-.76.72-.33.17-.7.26-1.12.26-.48,0-.89-.11-1.23-.32-.34-.22-.59-.53-.77-.93-.17-.41-.26-.89-.26-1.46v-4.01h1.07v3.86c0,.6.12,1.06.37,1.38ZM109.59,119.02h-1.07v-6.55h1.07v6.55Z"/>
    <path class="st0" d="M112.65,118.74c-.52-.3-.92-.72-1.22-1.24s-.44-1.12-.44-1.76.15-1.24.44-1.77.7-.94,1.22-1.24c.52-.3,1.09-.45,1.73-.45.4,0,.77.06,1.12.18.35.12.66.3.93.52.27.22.5.5.67.82l-.94.48c-.18-.32-.42-.57-.72-.74-.3-.17-.66-.25-1.07-.25-.45,0-.85.1-1.19.31-.35.21-.62.5-.81.86-.19.37-.29.79-.29,1.26s.1.9.29,1.26c.19.37.47.66.81.86.35.21.75.31,1.19.31.41,0,.76-.09,1.07-.26.3-.17.55-.42.72-.73l.94.48c-.18.31-.4.58-.67.81-.27.23-.58.4-.93.53-.35.12-.73.18-1.12.18-.64,0-1.21-.15-1.73-.45Z"/>
    <path class="st0" d="M119.87,118.74c-.52-.3-.92-.72-1.22-1.24s-.44-1.12-.44-1.76.15-1.24.44-1.77.7-.94,1.22-1.24c.52-.3,1.09-.45,1.73-.45.4,0,.77.06,1.12.18.35.12.66.3.93.52.27.22.5.5.67.82l-.94.48c-.18-.32-.42-.57-.72-.74-.3-.17-.66-.25-1.07-.25-.45,0-.85.1-1.19.31-.35.21-.62.5-.81.86-.19.37-.29.79-.29,1.26s.1.9.29,1.26c.19.37.47.66.81.86.35.21.75.31,1.19.31.41,0,.76-.09,1.07-.26.3-.17.55-.42.72-.73l.94.48c-.18.31-.4.58-.67.81-.27.23-.58.4-.93.53-.35.12-.73.18-1.12.18-.64,0-1.21-.15-1.73-.45Z"/>
    <path class="st0" d="M127.09,118.74c-.52-.3-.93-.72-1.23-1.24s-.44-1.12-.44-1.76.14-1.24.43-1.77c.29-.52.68-.94,1.18-1.24.5-.3,1.06-.45,1.68-.45s1.17.15,1.65.45c.48.3.86.71,1.13,1.24.27.52.41,1.11.41,1.77,0,.08,0,.21-.01.37h-5.6v-1.04h4.55l-.1.14c0-.36-.09-.68-.26-.97s-.41-.52-.72-.69c-.3-.17-.65-.25-1.04-.25-.42,0-.8.1-1.14.31-.33.21-.6.5-.78.86-.19.37-.28.79-.28,1.26s.1.9.3,1.27c.2.37.48.66.84.86.36.2.76.3,1.21.3s.83-.1,1.15-.3.56-.48.73-.83l.94.41c-.25.54-.63.97-1.12,1.28-.49.31-1.07.46-1.73.46s-1.23-.15-1.75-.45Z"/>
    <path class="st0" d="M134.04,118.88c-.42-.21-.79-.52-1.11-.93l.86-.61c.22.29.46.5.73.64.27.14.58.2.95.2.46,0,.81-.09,1.07-.27.25-.18.38-.43.38-.76,0-.18-.04-.33-.13-.44s-.23-.22-.43-.32c-.2-.09-.48-.18-.84-.27l-.36-.09c-.68-.18-1.18-.42-1.51-.71-.33-.3-.5-.66-.5-1.11,0-.36.1-.69.3-.99.2-.3.48-.53.83-.69.35-.17.74-.25,1.18-.25.49,0,.95.11,1.38.32.43.22.77.52,1.02.91l-.89.58c-.19-.26-.41-.46-.66-.6-.25-.14-.54-.2-.85-.2-.36,0-.66.08-.88.25-.22.17-.34.39-.34.66,0,.14.04.25.11.34.07.09.19.18.36.25.16.08.4.15.7.23l.36.09c.78.19,1.35.44,1.7.77.36.33.53.74.53,1.25,0,.4-.11.75-.32,1.06-.21.31-.51.55-.9.72-.39.17-.83.26-1.33.26-.53,0-1.01-.1-1.44-.31Z"/>
    <path class="st0" d="M140.22,118.88c-.42-.21-.79-.52-1.11-.93l.86-.61c.22.29.46.5.73.64.27.14.58.2.95.2.46,0,.81-.09,1.07-.27.25-.18.38-.43.38-.76,0-.18-.04-.33-.13-.44-.08-.12-.23-.22-.43-.32-.2-.09-.48-.18-.84-.27l-.36-.09c-.68-.18-1.18-.42-1.51-.71-.33-.3-.5-.66-.5-1.11,0-.36.1-.69.3-.99.2-.3.48-.53.83-.69s.74-.25,1.18-.25c.49,0,.95.11,1.38.32.43.22.77.52,1.02.91l-.89.58c-.19-.26-.41-.46-.66-.6-.25-.14-.54-.2-.85-.2-.36,0-.66.08-.88.25-.22.17-.34.39-.34.66,0,.14.04.25.11.34.07.09.19.18.36.25.17.08.4.15.71.23l.36.09c.78.19,1.35.44,1.7.77.36.33.53.74.53,1.25,0,.4-.11.75-.32,1.06-.21.31-.51.55-.9.72-.39.17-.83.26-1.33.26-.53,0-1.01-.1-1.44-.31Z"/>
  </g>
</svg>